<svg xmlns="http://www.w3.org/2000/svg" width="20" height="20" viewBox="0 0 20 20">
    <path fill="#696969" fill-rule="evenodd" d="M19.585 17.597l-2.673-2.659a1.422 1.422 0 0 0-1.523-.303s0-.023-.024-.023l-1.289-1.283a7.99 7.99 0 0 0-.328-10.985c-3.142-3.125-8.251-3.125-11.392 0a7.994 7.994 0 0 0 0 11.335 8.04 8.04 0 0 0 5.696 2.332 8.014 8.014 0 0 0 5.345-2.029l1.266 1.26a1.379 1.379 0 0 0 .235 1.678l2.672 2.66c.281.28.633.42.984.42.352 0 .727-.14.984-.42.608-.56.608-1.446.047-1.983zM3.059 13.003c-2.766-2.752-2.766-7.23 0-10.005A7.12 7.12 0 0 1 8.075.922c1.83 0 3.634.7 5.017 2.076 2.788 2.775 2.788 7.253.022 10.005-2.765 2.776-7.29 2.776-10.055 0zm15.869 5.924a.455.455 0 0 1-.657 0L15.6 16.268a.449.449 0 0 1 0-.653.462.462 0 0 1 .328-.14c.117 0 .234.046.328.14l2.672 2.636a.476.476 0 0 1 0 .676z"/>
</svg>
