<svg xmlns="http://www.w3.org/2000/svg" width="17" height="21" viewBox="0 0 17 21">
    <g fill="#696969" fill-rule="evenodd">
        <path d="M8.469 20.253c-1.978 0-3.955.003-5.933-.001-.674-.002-1.313-.123-1.828-.591-.497-.451-.734-1.021-.706-1.67.07-1.57.17-3.14.258-4.711.086-1.56.144-3.12.259-4.678.099-1.332.99-2.1 2.382-2.104 2.92-.007 5.845-.001 8.767-.001.824 0 1.648-.009 2.473.001 1.358.018 2.255.84 2.336 2.164.183 3.022.361 6.045.518 9.068.081 1.581-.86 2.516-2.495 2.52-2.012.007-4.022.003-6.031.003zm.031-1.157c1.99 0 3.977.002 5.967-.002.984-.001 1.39-.407 1.34-1.364-.076-1.474-.173-2.95-.258-4.422-.087-1.507-.169-3.013-.259-4.52-.04-.685-.378-1.06-.989-1.12-.152-.015-.306-.014-.46-.014H3.259c-1.253 0-1.545.272-1.606 1.492-.055 1.132-.107 2.266-.17 3.399-.096 1.753-.215 3.502-.296 5.255-.04.882.347 1.255 1.249 1.294.087.004.174.002.263.002H8.5z"/>
        <path d="M5.483 8.658c.577.006 1.025.447 1.025 1.011 0 .55-.465 1.007-1.034 1.012a1.036 1.036 0 0 1-1.04-1.037c.015-.567.466-.992 1.049-.986zM12.135 8.658c.577.006 1.025.447 1.025 1.011 0 .55-.464 1.007-1.034 1.012a1.035 1.035 0 0 1-1.039-1.037c.012-.567.464-.992 1.048-.986z"/>
        <path d="M5.62 9.714c-.002-1.332-.022-4.527.007-5.857.026-1.246.823-2.242 1.984-2.58 1.12-.323 2.371.084 3.024.983.302.414.452.877.463 1.38.03 1.403.013 4.67.034 6.074h1.18c0-1.345 0-4.553-.016-5.898-.01-.792-.202-1.544-.681-2.208C10.655.276 8.854-.32 7.235.17 5.595.669 4.468 2.13 4.446 3.848c-.016 1.333-.01 4.531-.006 5.866h1.182z"/>
    </g>
</svg>
